Anton.ufo
<glyph name="numbersign" format="1">
  <advance width="1119"/>
  <unicode hex="0023"/>
  <outline>
    <contour>
      <point x="182" y="741" type="line"/>
      <point x="210" y="886" type="line"/>
      <point x="100" y="886" type="line"/>
      <point x="100" y="1118" type="line"/>
      <point x="255" y="1118" type="line"/>
      <point x="348" y="1593" type="line"/>
      <point x="632" y="1593" type="line"/>
      <point x="539" y="1118" type="line"/>
      <point x="705" y="1118" type="line"/>
      <point x="798" y="1593" type="line"/>
      <point x="1082" y="1593" type="line"/>
      <point x="989" y="1118" type="line"/>
      <point x="1082" y="1118" type="line"/>
      <point x="1082" y="886" type="line"/>
      <point x="944" y="886" type="line"/>
      <point x="916" y="741" type="line"/>
      <point x="1024" y="741" type="line"/>
      <point x="1024" y="509" type="line"/>
      <point x="870" y="509" type="line"/>
      <point x="771" y="0" type="line"/>
      <point x="488" y="0" type="line"/>
      <point x="587" y="509" type="line"/>
      <point x="420" y="509" type="line"/>
      <point x="321" y="0" type="line"/>
      <point x="38" y="0" type="line"/>
      <point x="137" y="509" type="line"/>
      <point x="42" y="509" type="line"/>
      <point x="42" y="741" type="line"/>
    </contour>
    <contour>
      <point x="632" y="741" type="line"/>
      <point x="660" y="886" type="line"/>
      <point x="494" y="886" type="line"/>
      <point x="466" y="741" type="line"/>
    </contour>
  </outline>
</glyph>
<glyph name="zero" format="1">
  <advance width="1031"/>
  <unicode hex="0030"/>
  <outline>
    <contour>
      <point x="515" y="-19" type="curve" smooth="yes"/>
      <point x="217" y="-19"/>
      <point x="49" y="183"/>
      <point x="49" y="496" type="curve" smooth="yes"/>
      <point x="49" y="1142" type="line" smooth="yes"/>
      <point x="49" y="1473"/>
      <point x="201" y="1655"/>
      <point x="515" y="1655" type="curve" smooth="yes"/>
      <point x="829" y="1655"/>
      <point x="981" y="1473"/>
      <point x="981" y="1142" type="curve" smooth="yes"/>
      <point x="981" y="496" type="line" smooth="yes"/>
      <point x="981" y="183"/>
      <point x="813" y="-19"/>
    </contour>
    <contour>
      <point x="515" y="340" type="curve" smooth="yes"/>
      <point x="569" y="340"/>
      <point x="602" y="398"/>
      <point x="602" y="460" type="curve" smooth="yes"/>
      <point x="602" y="1186" type="line" smooth="yes"/>
      <point x="602" y="1268"/>
      <point x="595" y="1341"/>
      <point x="515" y="1341" type="curve" smooth="yes"/>
      <point x="435" y="1341"/>
      <point x="428" y="1268"/>
      <point x="428" y="1186" type="curve" smooth="yes"/>
      <point x="428" y="460" type="line" smooth="yes"/>
      <point x="428" y="398"/>
      <point x="461" y="340"/>
    </contour>
  </outline>
</glyph>
<glyph name="two" format="1">
  <advance width="1008"/>
  <unicode hex="0032"/>
  <outline>
    <contour>
      <point x="969" y="1293" type="curve" smooth="yes"/>
      <point x="969" y="823"/>
      <point x="635" y="645"/>
      <point x="477" y="332" type="curve"/>
      <point x="957" y="332" type="line"/>
      <point x="957" y="0" type="line"/>
      <point x="44" y="0" type="line"/>
      <point x="44" y="84" type="line" smooth="yes"/>
      <point x="44" y="337"/>
      <point x="123" y="484"/>
      <point x="269" y="689" type="curve" smooth="yes"/>
      <point x="308" y="743"/>
      <point x="388" y="844"/>
      <point x="507" y="992" type="curve" smooth="yes"/>
      <point x="567" y="1067"/>
      <point x="597" y="1164"/>
      <point x="597" y="1286" type="curve" smooth="yes"/>
      <point x="597" y="1369"/>
      <point x="579" y="1437"/>
      <point x="502" y="1437" type="curve" smooth="yes"/>
      <point x="443" y="1437"/>
      <point x="414" y="1384"/>
      <point x="414" y="1280" type="curve" smooth="yes"/>
      <point x="414" y="1065" type="line"/>
      <point x="44" y="1065" type="line"/>
      <point x="40" y="1173" type="line" smooth="yes"/>
      <point x="40" y="1553"/>
      <point x="138" y="1767"/>
      <point x="507" y="1767" type="curve" smooth="yes"/>
      <point x="799" y="1767"/>
      <point x="969" y="1597"/>
    </contour>
  </outline>
</glyph>
<glyph name="seven" format="1">
  <advance width="936"/>
  <unicode hex="0037"/>
  <outline>
    <contour>
      <point x="500" y="1" type="curve"/>
      <point x="267" y="0" type="line" smooth="yes"/>
      <point x="238" y="0"/>
      <point x="130" y="1"/>
      <point x="102" y="1" type="curve"/>
      <point x="134" y="492"/>
      <point x="308" y="866"/>
      <point x="455" y="1232" type="curve" smooth="yes"/>
      <point x="488" y="1313"/>
      <point x="511" y="1384"/>
      <point x="524" y="1435" type="curve"/>
      <point x="27" y="1435" type="line"/>
      <point x="27" y="1761" type="line"/>
      <point x="915" y="1761" type="line"/>
      <point x="915" y="1499" type="line"/>
      <point x="893" y="1292"/>
      <point x="786" y="1129"/>
      <point x="715" y="946" type="curve" smooth="yes"/>
      <point x="610" y="676"/>
      <point x="523" y="368"/>
    </contour>
  </outline>
</glyph>
<glyph name="less" format="1">
  <advance width="658"/>
  <unicode hex="003C"/>
  <outline>
    <contour>
      <point x="605" y="558" type="line"/>
      <point x="605" y="200" type="line"/>
      <point x="35" y="545" type="line"/>
      <point x="35" y="959" type="line"/>
      <point x="605" y="1300" type="line"/>
      <point x="605" y="941" type="line"/>
      <point x="263" y="749" type="line"/>
    </contour>
  </outline>
</glyph>
<glyph name="C" format="1">
  <advance width="971"/>
  <unicode hex="0043"/>
  <outline>
    <contour>
      <point x="485" y="321" type="curve" smooth="yes"/>
      <point x="545" y="321"/>
      <point x="569" y="375"/>
      <point x="569" y="454" type="curve" smooth="yes"/>
      <point x="569" y="758" type="line"/>
      <point x="925" y="758" type="line"/>
      <point x="925" y="425" type="line" smooth="yes"/>
      <point x="925" y="116"/>
      <point x="757" y="-21"/>
      <point x="477" y="-21" type="curve" smooth="yes"/>
      <point x="222" y="-21"/>
      <point x="53" y="151"/>
      <point x="53" y="436" type="curve" smooth="yes"/>
      <point x="53" y="1254" type="line" smooth="yes"/>
      <point x="53" y="1595"/>
      <point x="180" y="1776"/>
      <point x="485" y="1776" type="curve" smooth="yes"/>
      <point x="735" y="1776"/>
      <point x="917" y="1645"/>
      <point x="917" y="1368" type="curve" smooth="yes"/>
      <point x="917" y="1058" type="line"/>
      <point x="569" y="1058" type="line"/>
      <point x="569" y="1261" type="line" smooth="yes"/>
      <point x="569" y="1366"/>
      <point x="541" y="1421"/>
      <point x="485" y="1421" type="curve" smooth="yes"/>
      <point x="415" y="1421"/>
      <point x="403" y="1367"/>
      <point x="403" y="1289" type="curve" smooth="yes"/>
      <point x="403" y="454" type="line" smooth="yes"/>
      <point x="403" y="390"/>
      <point x="431" y="321"/>
    </contour>
  </outline>
</glyph>
<glyph name="D" format="1">
  <advance width="983"/>
  <unicode hex="0044"/>
  <outline>
    <contour>
      <point x="926" y="1347" type="curve" smooth="yes"/>
      <point x="930" y="522" type="line" smooth="yes"/>
      <point x="930" y="189"/>
      <point x="827" y="0"/>
      <point x="535" y="0" type="curve" smooth="yes"/>
      <point x="62" y="0" type="line"/>
      <point x="62" y="1761" type="line"/>
      <point x="547" y="1761" type="line" smooth="yes"/>
      <point x="800" y="1761"/>
      <point x="925" y="1617"/>
    </contour>
    <contour>
      <point x="578" y="414" type="curve" smooth="yes"/>
      <point x="578" y="1285" type="line" smooth="yes"/>
      <point x="578" y="1402"/>
      <point x="555" y="1452"/>
      <point x="455" y="1452" type="curve" smooth="yes"/>
      <point x="448" y="1452"/>
      <point x="435" y="1450"/>
      <point x="416" y="1449" type="curve"/>
      <point x="416" y="321" type="line"/>
      <point x="418" y="322"/>
      <point x="422" y="322"/>
      <point x="428" y="322" type="curve" smooth="yes"/>
      <point x="437" y="322"/>
      <point x="468" y="320"/>
      <point x="477" y="320" type="curve" smooth="yes"/>
      <point x="544" y="320"/>
      <point x="578" y="351"/>
    </contour>
  </outline>
</glyph>
<glyph name="E" format="1">
  <advance width="827"/>
  <unicode hex="0045"/>
  <outline>
    <contour>
      <point x="789" y="343" type="line"/>
      <point x="789" y="0" type="line"/>
      <point x="62" y="0" type="line"/>
      <point x="62" y="1761" type="line"/>
      <point x="766" y="1761" type="line"/>
      <point x="766" y="1421" type="line"/>
      <point x="420" y="1421" type="line"/>
      <point x="420" y="1077" type="line"/>
      <point x="752" y="1077" type="line"/>
      <point x="752" y="746" type="line"/>
      <point x="420" y="746" type="line"/>
      <point x="420" y="343" type="line"/>
    </contour>
  </outline>
</glyph>
<glyph name="G" format="1">
  <advance width="982"/>
  <unicode hex="0047"/>
  <outline>
    <contour>
      <point x="501" y="323" type="curve" smooth="yes"/>
      <point x="585" y="323"/>
      <point x="589" y="409"/>
      <point x="589" y="517" type="curve" smooth="yes"/>
      <point x="589" y="721" type="line"/>
      <point x="495" y="721" type="line"/>
      <point x="495" y="1025" type="line"/>
      <point x="921" y="1025" type="line"/>
      <point x="921" y="0" type="line"/>
      <point x="784" y="0" type="line"/>
      <point x="724" y="148" type="line"/>
      <point x="661" y="36"/>
      <point x="565" y="-21"/>
      <point x="434" y="-21" type="curve" smooth="yes"/>
      <point x="180" y="-21"/>
      <point x="53" y="161"/>
      <point x="53" y="524" type="curve" smooth="yes"/>
      <point x="53" y="1289" type="line" smooth="yes"/>
      <point x="53" y="1614"/>
      <point x="201" y="1776"/>
      <point x="489" y="1776" type="curve" smooth="yes"/>
      <point x="844" y="1776"/>
      <point x="925" y="1561"/>
      <point x="925" y="1168" type="curve"/>
      <point x="589" y="1168" type="line"/>
      <point x="589" y="1305" type="line" smooth="yes"/>
      <point x="589" y="1381"/>
      <point x="570" y="1433"/>
      <point x="505" y="1433" type="curve" smooth="yes"/>
      <point x="392" y="1433"/>
      <point x="405" y="1319"/>
      <point x="405" y="1191" type="curve" smooth="yes"/>
      <point x="405" y="509" type="line" smooth="yes"/>
      <point x="405" y="414"/>
      <point x="415" y="323"/>
    </contour>
  </outline>
</glyph>
<glyph name="M" format="1">
  <advance width="1496"/>
  <unicode hex="004D"/>
  <outline>
    <contour>
      <point x="1112" y="0" type="line"/>
      <point x="1112" y="1268" type="line"/>
      <point x="910" y="0" type="line"/>
      <point x="594" y="0" type="line"/>
      <point x="380" y="1268" type="line"/>
      <point x="380" y="0" type="line"/>
      <point x="62" y="0" type="line"/>
      <point x="62" y="1761" type="line"/>
      <point x="598" y="1761" type="line"/>
      <point x="746" y="687" type="line"/>
      <point x="893" y="1761" type="line"/>
      <point x="1434" y="1761" type="line"/>
      <point x="1434" y="0" type="line"/>
    </contour>
  </outline>
</glyph>
<glyph name="N" format="1">
  <advance width="988"/>
  <unicode hex="004E"/>
  <outline>
    <contour>
      <point x="586" y="917" type="line"/>
      <point x="586" y="1761" type="line"/>
      <point x="926" y="1761" type="line"/>
      <point x="926" y="0" type="line"/>
      <point x="582" y="0" type="line"/>
      <point x="406" y="880" type="line"/>
      <point x="406" y="0" type="line"/>
      <point x="62" y="0" type="line"/>
      <point x="62" y="1761" type="line"/>
      <point x="424" y="1761" type="line"/>
    </contour>
  </outline>
</glyph>
<glyph name="P" format="1">
  <advance width="951"/>
  <unicode hex="0050"/>
  <outline>
    <contour>
      <point x="918" y="1224" type="curve" smooth="yes"/>
      <point x="918" y="903"/>
      <point x="843" y="697"/>
      <point x="551" y="697" type="curve" smooth="yes"/>
      <point x="408" y="697" type="line"/>
      <point x="408" y="0" type="line"/>
      <point x="62" y="0" type="line"/>
      <point x="62" y="1761" type="line"/>
      <point x="527" y="1761" type="line" smooth="yes"/>
      <point x="819" y="1761"/>
      <point x="918" y="1557"/>
    </contour>
    <contour>
      <point x="570" y="1230" type="curve" smooth="yes"/>
      <point x="570" y="1364"/>
      <point x="553" y="1440"/>
      <point x="447" y="1440" type="curve" smooth="yes"/>
      <point x="408" y="1440" type="line"/>
      <point x="408" y="1013" type="line"/>
      <point x="428" y="1013" type="line" smooth="yes"/>
      <point x="558" y="1013"/>
      <point x="570" y="1087"/>
    </contour>
  </outline>
</glyph>
<glyph name="U" format="1">
  <advance width="970"/>
  <unicode hex="0055"/>
  <outline>
    <contour>
      <point x="485" y="-21" type="curve" smooth="yes"/>
      <point x="192" y="-21"/>
      <point x="57" y="146"/>
      <point x="57" y="466" type="curve" smooth="yes"/>
      <point x="57" y="1761" type="line"/>
      <point x="399" y="1761" type="line"/>
      <point x="399" y="492" type="line" smooth="yes"/>
      <point x="399" y="404"/>
      <point x="405" y="315"/>
      <point x="485" y="315" type="curve" smooth="yes"/>
      <point x="566" y="315"/>
      <point x="571" y="403"/>
      <point x="571" y="492" type="curve" smooth="yes"/>
      <point x="571" y="1761" type="line"/>
      <point x="913" y="1761" type="line"/>
      <point x="913" y="466" type="line" smooth="yes"/>
      <point x="913" y="146"/>
      <point x="778" y="-21"/>
    </contour>
  </outline>
</glyph>
<glyph name="V" format="1">
  <advance width="961"/>
  <unicode hex="0056"/>
  <outline>
    <contour>
      <point x="582" y="1761" type="line"/>
      <point x="937" y="1761" type="line"/>
      <point x="720" y="0" type="line"/>
      <point x="240" y="0" type="line"/>
      <point x="23" y="1761" type="line"/>
      <point x="378" y="1761" type="line"/>
      <point x="477" y="593" type="line"/>
    </contour>
  </outline>
</glyph>
<glyph name="asciicircum" format="1">
  <advance width="970"/>
  <unicode hex="005E"/>
  <outline>
    <contour>
      <point x="689" y="1355" type="line"/>
      <point x="930" y="432" type="line"/>
      <point x="571" y="432" type="line"/>
      <point x="485" y="1027" type="line"/>
      <point x="399" y="432" type="line"/>
      <point x="40" y="432" type="line"/>
      <point x="281" y="1355" type="line"/>
    </contour>
  </outline>
</glyph>
<glyph name="a" format="1">
  <advance width="980"/>
  <unicode hex="0061"/>
  <outline>
    <contour>
      <point x="344" y="-18" type="curve" smooth="yes"/>
      <point x="94" y="-18"/>
      <point x="40" y="174"/>
      <point x="40" y="430" type="curve" smooth="yes"/>
      <point x="40" y="839"/>
      <point x="226" y="854"/>
      <point x="562" y="969" type="curve"/>
      <point x="562" y="972" type="line" smooth="yes"/>
      <point x="562" y="998"/>
      <point x="562" y="1102"/>
      <point x="562" y="1123" type="curve" smooth="yes"/>
      <point x="562" y="1213"/>
      <point x="542" y="1236"/>
      <point x="497" y="1239" type="curve" smooth="yes"/>
      <point x="432" y="1243"/>
      <point x="411" y="1201"/>
      <point x="411" y="1146" type="curve" smooth="yes"/>
      <point x="411" y="1056" type="line"/>
      <point x="63" y="1056" type="line"/>
      <point x="62" y="1067"/>
      <point x="62" y="1084"/>
      <point x="62" y="1105" type="curve" smooth="yes"/>
      <point x="62" y="1403"/>
      <point x="197" y="1518"/>
      <point x="503" y="1518" type="curve" smooth="yes"/>
      <point x="743" y="1518"/>
      <point x="923" y="1387"/>
      <point x="923" y="1143" type="curve" smooth="yes"/>
      <point x="923" y="0" type="line"/>
      <point x="567" y="0" type="line"/>
      <point x="567" y="178" type="line"/>
      <point x="532" y="53"/>
      <point x="447" y="-18"/>
    </contour>
    <contour>
      <point x="561" y="379" type="curve" smooth="yes"/>
      <point x="561" y="797" type="line"/>
      <point x="462" y="757"/>
      <point x="405" y="705"/>
      <point x="405" y="588" type="curve" smooth="yes"/>
      <point x="405" y="395" type="line" smooth="yes"/>
      <point x="405" y="306"/>
      <point x="432" y="262"/>
      <point x="485" y="262" type="curve" smooth="yes"/>
      <point x="543" y="262"/>
      <point x="561" y="322"/>
    </contour>
  </outline>
</glyph>
<glyph name="e" format="1">
  <advance width="982"/>
  <unicode hex="0065"/>
  <outline>
    <contour>
      <point x="575" y="579" type="curve"/>
      <point x="931" y="579" type="line"/>
      <point x="931" y="494" type="line" smooth="yes"/>
      <point x="931" y="157"/>
      <point x="821" y="-18"/>
      <point x="481" y="-18" type="curve" smooth="yes"/>
      <point x="160" y="-18"/>
      <point x="49" y="170"/>
      <point x="49" y="489" type="curve" smooth="yes"/>
      <point x="49" y="1092" type="line" smooth="yes"/>
      <point x="49" y="1371"/>
      <point x="219" y="1518"/>
      <point x="499" y="1518" type="curve" smooth="yes"/>
      <point x="787" y="1518"/>
      <point x="931" y="1376"/>
      <point x="931" y="1092" type="curve" smooth="yes"/>
      <point x="931" y="983" type="line" smooth="yes"/>
      <point x="931" y="848"/>
      <point x="930" y="768"/>
      <point x="927" y="717" type="curve"/>
      <point x="407" y="717" type="line"/>
      <point x="407" y="495"/>
      <point x="407" y="439"/>
      <point x="407" y="427" type="curve" smooth="yes"/>
      <point x="407" y="346"/>
      <point x="413" y="260"/>
      <point x="493" y="260" type="curve" smooth="yes"/>
      <point x="579" y="260"/>
      <point x="577" y="395"/>
      <point x="577" y="483" type="curve" smooth="yes"/>
      <point x="577" y="542"/>
      <point x="576" y="574"/>
    </contour>
    <contour>
      <point x="405" y="1057" type="curve" smooth="yes"/>
      <point x="405" y="1033"/>
      <point x="405" y="919"/>
      <point x="405" y="895" type="curve"/>
      <point x="575" y="895" type="line"/>
      <point x="575" y="1087" type="line" smooth="yes"/>
      <point x="575" y="1195"/>
      <point x="548" y="1249"/>
      <point x="495" y="1249" type="curve" smooth="yes"/>
      <point x="408" y="1249"/>
      <point x="405" y="1146"/>
    </contour>
  </outline>
</glyph>
<glyph name="g" format="1">
  <advance width="1019"/>
  <unicode hex="0067"/>
  <outline>
    <contour>
      <point x="593" y="1500" type="line"/>
      <point x="958" y="1500" type="line"/>
      <point x="958" y="254" type="line" smooth="yes"/>
      <point x="958" y="-86"/>
      <point x="807" y="-220"/>
      <point x="470" y="-220" type="curve" smooth="yes"/>
      <point x="262" y="-220"/>
      <point x="157" y="-194"/>
      <point x="40" y="-96" type="curve"/>
      <point x="161" y="111" type="line"/>
      <point x="248" y="59"/>
      <point x="336" y="33"/>
      <point x="423" y="33" type="curve" smooth="yes"/>
      <point x="538" y="33"/>
      <point x="593" y="113"/>
      <point x="593" y="231" type="curve" smooth="yes"/>
      <point x="593" y="314" type="line"/>
      <point x="564" y="211"/>
      <point x="487" y="160"/>
      <point x="364" y="160" type="curve" smooth="yes"/>
      <point x="149" y="160"/>
      <point x="65" y="328"/>
      <point x="65" y="543" type="curve" smooth="yes"/>
      <point x="65" y="1106" type="line" smooth="yes"/>
      <point x="65" y="1348"/>
      <point x="129" y="1518"/>
      <point x="364" y="1518" type="curve" smooth="yes"/>
      <point x="496" y="1518"/>
      <point x="568" y="1444"/>
      <point x="593" y="1331" type="curve"/>
    </contour>
    <contour>
      <point x="593" y="582" type="curve" smooth="yes"/>
      <point x="593" y="1116" type="line" smooth="yes"/>
      <point x="593" y="1171"/>
      <point x="560" y="1243"/>
      <point x="505" y="1243" type="curve" smooth="yes"/>
      <point x="436" y="1243"/>
      <point x="427" y="1183"/>
      <point x="427" y="1116" type="curve" smooth="yes"/>
      <point x="427" y="582" type="line" smooth="yes"/>
      <point x="427" y="510"/>
      <point x="435" y="430"/>
      <point x="509" y="430" type="curve" smooth="yes"/>
      <point x="565" y="430"/>
      <point x="593" y="481"/>
    </contour>
  </outline>
</glyph>
<glyph name="k" format="1">
  <advance width="1039"/>
  <unicode hex="006B"/>
  <outline>
    <contour>
      <point x="416" y="707" type="line"/>
      <point x="416" y="0" type="line"/>
      <point x="62" y="0" type="line"/>
      <point x="62" y="1769" type="line"/>
      <point x="416" y="1769" type="line"/>
      <point x="416" y="983" type="line"/>
      <point x="588" y="1500" type="line"/>
      <point x="959" y="1500" type="line"/>
      <point x="734" y="848" type="line"/>
      <point x="1020" y="0" type="line"/>
      <point x="639" y="0" type="line"/>
    </contour>
  </outline>
</glyph>
<glyph name="m" format="1">
  <advance width="1532"/>
  <unicode hex="006D"/>
  <outline>
    <contour>
      <point x="512" y="1243" type="curve" smooth="yes"/>
      <point x="431" y="1243"/>
      <point x="412" y="1140"/>
      <point x="412" y="1059" type="curve" smooth="yes"/>
      <point x="412" y="0" type="line"/>
      <point x="62" y="0" type="line"/>
      <point x="62" y="1501" type="line"/>
      <point x="412" y="1501" type="line"/>
      <point x="412" y="1326" type="line"/>
      <point x="444" y="1448"/>
      <point x="514" y="1519"/>
      <point x="664" y="1519" type="curve" smooth="yes"/>
      <point x="784" y="1519"/>
      <point x="872" y="1456"/>
      <point x="907" y="1365" type="curve"/>
      <point x="962" y="1464"/>
      <point x="1024" y="1519"/>
      <point x="1162" y="1519" type="curve" smooth="yes"/>
      <point x="1411" y="1519"/>
      <point x="1475" y="1343"/>
      <point x="1475" y="1096" type="curve"/>
      <point x="1471" y="0" type="line"/>
      <point x="1110" y="0" type="line"/>
      <point x="1110" y="1102" type="line" smooth="yes"/>
      <point x="1110" y="1199"/>
      <point x="1086" y="1247"/>
      <point x="1037" y="1247" type="curve" smooth="yes"/>
      <point x="960" y="1247"/>
      <point x="940" y="1154"/>
      <point x="940" y="1077" type="curve" smooth="yes"/>
      <point x="940" y="0" type="line"/>
      <point x="582" y="0" type="line"/>
      <point x="582" y="1102" type="line" smooth="yes"/>
      <point x="582" y="1165"/>
      <point x="575" y="1243"/>
    </contour>
  </outline>
</glyph>
<glyph name="r" format="1">
  <advance width="702"/>
  <unicode hex="0072"/>
  <outline>
    <contour>
      <point x="420" y="1147" type="curve" smooth="yes"/>
      <point x="420" y="0" type="line"/>
      <point x="62" y="0" type="line"/>
      <point x="62" y="1500" type="line"/>
      <point x="420" y="1500" type="line"/>
      <point x="420" y="1333" type="line"/>
      <point x="454" y="1449"/>
      <point x="542" y="1518"/>
      <point x="675" y="1518" type="curve" smooth="yes"/>
      <point x="680" y="1518"/>
      <point x="678" y="1215"/>
      <point x="678" y="1219" type="curve"/>
      <point x="590" y="1219"/>
      <point x="420" y="1187"/>
    </contour>
  </outline>
</glyph>
<glyph name="w" format="1">
  <advance width="1484"/>
  <unicode hex="0077"/>
  <outline>
    <contour>
      <point x="475" y="694" type="line"/>
      <point x="562" y="1500" type="line"/>
      <point x="922" y="1500" type="line"/>
      <point x="1006" y="694" type="line"/>
      <point x="1098" y="1500" type="line"/>
      <point x="1455" y="1500" type="line"/>
      <point x="1244" y="0" type="line"/>
      <point x="828" y="0" type="line"/>
      <point x="740" y="801" type="line"/>
      <point x="656" y="0" type="line"/>
      <point x="240" y="0" type="line"/>
      <point x="29" y="1500" type="line"/>
      <point x="386" y="1500" type="line"/>
    </contour>
  </outline>
</glyph>
<glyph name="z" format="1">
  <advance width="879"/>
  <unicode hex="007A"/>
  <outline>
    <contour>
      <point x="817" y="301" type="line"/>
      <point x="817" y="0" type="line"/>
      <point x="33" y="0" type="line"/>
      <point x="33" y="272" type="line"/>
      <point x="446" y="1194" type="line"/>
      <point x="72" y="1194" type="line"/>
      <point x="72" y="1500" type="line"/>
      <point x="842" y="1500" type="line"/>
      <point x="842" y="1194" type="line"/>
      <point x="440" y="301" type="line"/>
    </contour>
  </outline>
</glyph>
<glyph name="exclamdown" format="1">
  <advance width="464"/>
  <unicode hex="00A1"/>
  <outline>
    <contour>
      <point x="341" y="1155" type="line"/>
      <point x="411" y="1" type="line"/>
      <point x="53" y="1" type="line"/>
      <point x="123" y="1155" type="line"/>
    </contour>
    <contour>
      <point x="411" y="1295" type="line"/>
      <point x="53" y="1295" type="line"/>
      <point x="53" y="1593" type="line"/>
      <point x="411" y="1593" type="line"/>
    </contour>
  </outline>
</glyph>
<glyph name="currency" format="1">
  <advance width="1000"/>
  <unicode hex="00A4"/>
  <outline>
    <contour>
      <point x="499" y="545" type="curve" smooth="yes"/>
      <point x="416" y="545"/>
      <point x="344" y="563"/>
      <point x="283" y="598" type="curve"/>
      <point x="194" y="509" type="line"/>
      <point x="45" y="659" type="line"/>
      <point x="136" y="750" type="line"/>
      <point x="101" y="815"/>
      <point x="83" y="887"/>
      <point x="83" y="964" type="curve" smooth="yes"/>
      <point x="83" y="1042"/>
      <point x="100" y="1113"/>
      <point x="135" y="1178" type="curve"/>
      <point x="45" y="1268" type="line"/>
      <point x="194" y="1418" type="line"/>
      <point x="281" y="1330" type="line"/>
      <point x="346" y="1367"/>
      <point x="418" y="1385"/>
      <point x="499" y="1385" type="curve" smooth="yes"/>
      <point x="579" y="1385"/>
      <point x="652" y="1367"/>
      <point x="717" y="1331" type="curve"/>
      <point x="804" y="1418" type="line"/>
      <point x="954" y="1269" type="line"/>
      <point x="864" y="1179" type="line"/>
      <point x="900" y="1114"/>
      <point x="918" y="1043"/>
      <point x="918" y="964" type="curve" smooth="yes"/>
      <point x="918" y="885"/>
      <point x="900" y="813"/>
      <point x="864" y="748" type="curve"/>
      <point x="954" y="658" type="line"/>
      <point x="804" y="509" type="line"/>
      <point x="715" y="597" type="line"/>
      <point x="653" y="562"/>
      <point x="581" y="545"/>
    </contour>
    <contour>
      <point x="708" y="966" type="curve" smooth="yes"/>
      <point x="708" y="1092"/>
      <point x="628" y="1186"/>
      <point x="499" y="1186" type="curve" smooth="yes"/>
      <point x="373" y="1186"/>
      <point x="291" y="1087"/>
      <point x="291" y="964" type="curve" smooth="yes"/>
      <point x="291" y="840"/>
      <point x="372" y="741"/>
      <point x="499" y="741" type="curve" smooth="yes"/>
      <point x="626" y="741"/>
      <point x="708" y="842"/>
    </contour>
  </outline>
</glyph>
<glyph name="ordfeminine" format="1">
  <advance width="803"/>
  <unicode hex="00AA"/>
  <outline>
    <contour>
      <point x="286" y="389" type="curve" smooth="yes"/>
      <point x="88" y="389"/>
      <point x="44" y="541"/>
      <point x="44" y="744" type="curve" smooth="yes"/>
      <point x="44" y="1068"/>
      <point x="193" y="1090"/>
      <point x="459" y="1181" type="curve"/>
      <point x="459" y="1183" type="line" smooth="yes"/>
      <point x="459" y="1259"/>
      <point x="474" y="1386"/>
      <point x="398" y="1386" type="curve" smooth="yes"/>
      <point x="359" y="1386"/>
      <point x="339" y="1364"/>
      <point x="339" y="1321" type="curve" smooth="yes"/>
      <point x="339" y="1241" type="line"/>
      <point x="63" y="1241" type="line"/>
      <point x="62" y="1250"/>
      <point x="62" y="1263"/>
      <point x="62" y="1280" type="curve" smooth="yes"/>
      <point x="62" y="1516"/>
      <point x="169" y="1607"/>
      <point x="412" y="1607" type="curve" smooth="yes"/>
      <point x="419" y="1607" type="line" smooth="yes"/>
      <point x="606" y="1607"/>
      <point x="745" y="1501"/>
      <point x="745" y="1310" type="curve" smooth="yes"/>
      <point x="745" y="403" type="line"/>
      <point x="463" y="403" type="line"/>
      <point x="463" y="527" type="line"/>
      <point x="446" y="461"/>
      <point x="368" y="389"/>
    </contour>
    <contour>
      <point x="458" y="704" type="curve" smooth="yes"/>
      <point x="458" y="1017" type="line"/>
      <point x="379" y="986"/>
      <point x="334" y="948"/>
      <point x="334" y="855" type="curve" smooth="yes"/>
      <point x="334" y="716" type="line" smooth="yes"/>
      <point x="334" y="646"/>
      <point x="355" y="611"/>
      <point x="398" y="611" type="curve" smooth="yes"/>
      <point x="444" y="611"/>
      <point x="458" y="659"/>
    </contour>
  </outline>
</glyph>
<glyph name="periodcentered" format="1">
  <advance width="480"/>
  <unicode hex="00B7"/>
  <outline>
    <contour>
      <point x="419" y="1021" type="line"/>
      <point x="419" y="723" type="line"/>
      <point x="61" y="723" type="line"/>
      <point x="61" y="1021" type="line"/>
    </contour>
  </outline>
</glyph>
<glyph name="AE" format="1">
  <advance width="1311"/>
  <unicode hex="00C6"/>
  <outline>
    <contour>
      <point x="1272" y="311" type="line"/>
      <point x="1272" y="0" type="line"/>
      <point x="605" y="0" type="line"/>
      <point x="604" y="120" type="line"/>
      <point x="604" y="240" type="line"/>
      <point x="396" y="240" type="line"/>
      <point x="357" y="0" type="line"/>
      <point x="16" y="0" type="line"/>
      <point x="337" y="1593" type="line"/>
      <point x="1249" y="1593" type="line"/>
      <point x="1249" y="1284" type="line"/>
      <point x="963" y="1284" type="line"/>
      <point x="963" y="973" type="line"/>
      <point x="1235" y="973" type="line"/>
      <point x="1235" y="674" type="line"/>
      <point x="963" y="674" type="line"/>
      <point x="963" y="311" type="line"/>
    </contour>
    <contour>
      <point x="442" y="530" type="line"/>
      <point x="600" y="530" type="line"/>
      <point x="600" y="1294" type="line"/>
      <point x="572" y="1294" type="line"/>
    </contour>
  </outline>
</glyph>
<glyph name="Oslash" format="1">
  <advance width="750"/>
  <unicode hex="00D8"/>
  <outline>
    <contour>
      <point x="20" y="-122" type="line"/>
      <point x="147" y="326" type="line"/>
      <point x="246" y="240" type="line"/>
      <point x="132" y="-162" type="line"/>
    </contour>
    <contour>
      <point x="741" y="1981" type="line"/>
      <point x="607" y="1510" type="line"/>
      <point x="496" y="1560" type="line"/>
      <point x="624" y="2014" type="line"/>
    </contour>
    <component base="O"/>
  </outline>
</glyph>
<glyph name="kgreenlandic" format="1">
  <advance width="1040"/>
  <unicode hex="0138"/>
  <outline>
    <contour>
      <point x="416" y="674" type="line"/>
      <point x="416" y="0" type="line"/>
      <point x="62" y="0" type="line"/>
      <point x="62" y="1500" type="line"/>
      <point x="416" y="1500" type="line"/>
      <point x="416" y="950" type="line"/>
      <point x="588" y="1500" type="line"/>
      <point x="959" y="1500" type="line"/>
      <point x="734" y="815" type="line"/>
      <point x="1020" y="0" type="line"/>
      <point x="639" y="0" type="line"/>
    </contour>
  </outline>
</glyph>
<glyph name="Lslash" format="1">
  <advance width="853"/>
  <unicode hex="0141"/>
  <outline>
    <contour>
      <point x="823" y="311" type="line"/>
      <point x="823" y="0" type="line"/>
      <point x="109" y="0" type="line"/>
      <point x="109" y="1593" type="line"/>
      <point x="461" y="1593" type="line"/>
      <point x="461" y="311" type="line"/>
    </contour>
    <contour>
      <point x="726" y="973" type="line"/>
      <point x="726" y="741" type="line"/>
      <point x="39" y="509" type="line"/>
      <point x="39" y="741" type="line"/>
    </contour>
  </outline>
</glyph>
<glyph name="endash" format="1">
  <advance width="637"/>
  <unicode hex="2013"/>
  <outline>
    <contour>
      <point x="576" y="741" type="line"/>
      <point x="576" y="509" type="line"/>
      <point x="60" y="509" type="line"/>
      <point x="60" y="741" type="line"/>
    </contour>
  </outline>
</glyph>
<glyph name="quoteleft" format="1">
  <advance width="481"/>
  <unicode hex="2018"/>
  <outline>
    <contour>
      <point x="367" y="1592" type="line"/>
      <point x="301" y="1356" type="line"/>
      <point x="428" y="1356" type="line"/>
      <point x="428" y="1058" type="line"/>
      <point x="54" y="1058" type="line"/>
      <point x="54" y="1347" type="line"/>
      <point x="156" y="1592" type="line"/>
    </contour>
  </outline>
</glyph>
<glyph name="quoteright" format="1">
  <advance width="475"/>
  <unicode hex="2019"/>
  <outline>
    <contour>
      <point x="111" y="1058" type="line"/>
      <point x="177" y="1294" type="line"/>
      <point x="50" y="1294" type="line"/>
      <point x="50" y="1592" type="line"/>
      <point x="424" y="1592" type="line"/>
      <point x="424" y="1303" type="line"/>
      <point x="322" y="1058" type="line"/>
    </contour>
  </outline>
</glyph>
